<?xml version="1.0" ?><!DOCTYPE svg  PUBLIC '-//W3C//DTD SVG 1.1//EN' 'http://www.w3.org/Graphics/SVG/1.1/DTD/svg11.dtd'><svg class="img-fluid" id="outputsvg" xmlns="http://www.w3.org/2000/svg" style="transform: matrix(1.0159, 0, 0, 1.0159, 0, 0); transform-origin: 50% 50%; cursor: move; max-height: none; transition: transform 200ms ease-in-out;" width="480" height="480" viewBox="0 0 4800 4800"><g id="l3XEjfqU2YriFQuwg8I7ThA" fill="rgb(255,255,255)" style="transform: none;"><g style="transform: none;"><path id="p6oRnSQDA" d="M0 2400 l0 -2400 2400 0 2400 0 0 2400 0 2400 -2400 0 -2400 0 0 -2400z m1170 1210 l0 -260 -40 0 -40 0 0 260 0 260 40 0 40 0 0 -260z m530 0 l0 -260 -40 0 -40 0 0 260 0 260 40 0 40 0 0 -260z m530 0 l0 -260 -40 0 -40 0 0 260 0 260 40 0 40 0 0 -260z m970 0 l0 -260 -39 0 -39 0 -1 260 -1 260 40 0 40 0 0 -260z m352 0 l-3 -260 -39 0 -40 0 0 260 0 260 43 0 42 0 -3 -260z m578 0 l0 -260 -40 0 -40 0 0 260 0 260 40 0 40 0 0 -260z m-1580 177 c-38 -109 -35 -288 7 -371 14 -29 12 -28 -30 13 -55 53 -89 127 -89 193 0 62 41 147 90 188 20 16 37 30 39 30 1 0 -7 -24 -17 -53z m-2108 1 c-23 -62 -22 -308 1 -360 20 -48 8 -48 -32 -3 -100 115 -101 255 -1 368 42 48 51 47 32 -5z m413 -72 c31 -62 34 -151 6 -212 -19 -41 -77 -114 -91 -114 -4 0 -1 23 6 52 24 90 17 298 -11 373 -16 40 65 -48 90 -99z m-287 -640 c14 -26 17 -67 20 -243 l4 -213 -44 0 -43 0 0 259 0 258 23 -15 c13 -8 31 -29 40 -46z m1044 52 c-9 -9 -12 -80 -12 -260 l0 -248 -40 0 -40 0 0 200 c0 222 5 247 59 293 33 27 56 38 33 15z m608 -248 l0 -260 -35 0 -35 0 0 260 0 260 35 0 35 0 0 -260z m340 257 c0 -1 -34 -50 -75 -107 -41 -58 -75 -113 -75 -124 0 -12 -5 -16 -16 -12 -9 3 -25 6 -36 6 -17 0 -11 13 38 83 32 45 69 99 83 120 19 28 31 37 53 37 15 0 28 -1 28 -3z m1258 -5 c-25 -60 -201 -468 -203 -470 -2 -2 -12 16 -23 40 -12 28 -15 44 -7 46 6 1 23 36 39 78 16 41 33 77 37 80 5 3 9 19 9 36 0 17 6 36 13 42 18 14 57 108 57 135 0 18 6 21 41 21 22 0 39 -4 37 -8z m312 -252 l0 -260 -40 0 -40 0 0 260 0 260 40 0 40 0 0 -260z m-2829 105 c31 -63 36 -114 19 -176 -13 -45 -56 -110 -92 -139 l-27 -21 17 38 c25 57 25 331 -1 388 l-18 40 37 -35 c20 -19 49 -62 65 -95z m-945 60 c-7 -19 -20 -19 -35 -1 -10 11 -10 20 -1 36 l12 22 15 -21 c8 -12 12 -28 9 -36z m527 -20 c-19 -90 -13 -282 11 -340 l17 -40 -41 40 c-23 22 -53 64 -67 93 -44 90 -21 206 60 289 17 18 32 32 33 30 1 -1 -5 -33 -13 -72z m2287 5 c0 -52 -2 -60 -19 -60 -13 0 -60 -52 -141 -152 -67 -84 -131 -163 -141 -175 -12 -15 -30 -23 -49 -23 -28 0 -30 3 -30 35 0 30 3 35 24 35 18 0 57 42 186 200 89 110 164 200 166 200 2 0 4 -27 4 -60z m-673 -213 c27 -25 36 -42 36 -65 0 -39 -25 -77 -63 -97 l-30 -15 10 25 c13 35 13 141 0 166 -17 30 5 24 47 -14z m-1277 -447 c66 -35 83 -40 143 -40 l67 0 0 40 c0 33 3 40 20 40 11 0 20 -5 20 -10 0 -15 132 -77 180 -85 38 -6 38 -7 33 -46 -7 -49 2 -60 95 -111 40 -22 76 -47 79 -54 2 -7 20 -18 39 -24 24 -8 40 -23 54 -51 11 -21 27 -39 35 -39 8 0 15 -6 15 -14 0 -11 -8 -11 -52 0 -88 23 -148 19 -194 -15 -22 -16 -63 -39 -91 -50 -45 -18 -197 -52 -227 -51 -22 1 86 51 166 76 46 15 109 39 141 55 56 29 57 30 57 72 l0 43 -82 27 c-46 15 -95 30 -110 33 -24 5 -28 11 -28 40 0 30 -4 34 -37 43 -21 6 -55 11 -75 11 -35 0 -38 -2 -38 -29 0 -25 -4 -29 -39 -35 -31 -5 -53 0 -106 24 -37 17 -80 39 -95 50 -17 12 -44 20 -69 20 -39 0 -41 -2 -41 -29 0 -41 33 -94 79 -125 20 -14 48 -40 60 -57 20 -27 22 -38 16 -85 -6 -53 -7 -54 -40 -54 -39 0 -94 41 -195 144 -53 55 -70 66 -97 66 -31 0 -33 -2 -33 -35 0 -24 13 -52 44 -97 24 -35 47 -73 50 -85 4 -13 11 -23 16 -23 5 0 53 -42 107 -93 165 -157 229 -197 312 -197 66 0 81 7 81 39 l0 27 141 12 c170 15 228 27 252 55 24 28 51 12 55 -32 3 -25 8 -31 28 -31 28 0 29 -2 9 -40 -16 -32 -85 -366 -85 -415 0 -56 103 -243 160 -292 16 -13 39 -44 51 -68 12 -24 35 -58 50 -74 l28 -31 -930 0 -929 0 0 820 0 820 418 0 417 0 75 -40z m918 -6 c30 -41 32 -44 10 -34 -12 7 -37 23 -55 36 -18 14 -42 28 -55 34 -19 7 -16 9 22 9 42 0 47 -3 78 -45z m2352 -769 l0 -815 -572 0 -573 0 3 55 c3 42 -1 63 -16 89 l-20 34 21 20 c13 12 39 22 62 24 l40 3 3 57 c2 47 0 59 -16 69 -18 11 -17 15 10 112 21 77 28 122 28 192 l0 92 70 108 c59 91 70 115 70 151 0 48 -16 69 -57 79 l-28 6 -3 101 c-2 73 -7 106 -17 118 -9 9 -15 36 -15 61 0 59 -27 110 -70 132 -39 20 -101 19 -245 -7 -70 -12 -84 -12 -111 0 -31 15 -79 67 -103 112 l-12 22 776 0 775 0 0 -815z"></path></g></g><g id="lsdi3QPUvtsNteOyDXy9Of" fill="rgb(19,96,167)" style="transform: none;"><g style="transform: none;"><path id="psvwfiigQ" d="M374 3179 c-18 -5 -46 -25 -63 -44 -54 -62 -36 -145 31 -145 51 0 75 61 42 108 -20 29 -4 52 36 52 53 0 55 -12 55 -272 0 -226 -1 -240 -19 -254 -11 -8 -30 -14 -43 -14 -13 0 -23 -4 -23 -10 0 -6 58 -10 155 -10 97 0 155 4 155 10 0 6 -10 10 -22 10 -52 1 -53 4 -58 242 -4 200 -7 227 -25 257 -39 66 -133 96 -221 70z"></path><path id="pYuKTiCQv" d="M958 3176 c-76 -22 -138 -75 -180 -156 -33 -64 -38 -199 -10 -263 26 -58 85 -123 136 -150 57 -29 208 -36 270 -13 124 47 188 148 187 293 -1 120 -90 254 -189 283 -59 18 -163 21 -214 6z m173 -47 c15 -10 37 -42 50 -71 21 -47 24 -68 24 -178 0 -110 -3 -131 -24 -177 -56 -125 -188 -124 -250 1 -22 43 -25 64 -25 160 -1 63 5 134 13 164 29 113 127 160 212 101z"></path><path id="pMs4qSJYb" d="M1611 3176 c-24 -8 -54 -25 -68 -38 -48 -44 -53 -72 -53 -292 0 -200 0 -205 -22 -220 -12 -9 -33 -16 -46 -16 -13 0 -20 -4 -17 -10 4 -6 67 -10 156 -10 93 0 149 4 149 10 0 6 -9 10 -21 10 -11 0 -29 5 -40 10 -18 10 -19 24 -19 239 l0 229 29 31 c26 27 35 31 85 31 48 0 60 -4 90 -31 20 -17 40 -47 46 -67 5 -20 10 -121 10 -223 0 -200 0 -201 -53 -214 -55 -14 -24 -25 73 -25 60 0 100 4 100 10 0 6 -8 10 -18 10 -10 0 -27 7 -39 15 -20 14 -21 24 -24 217 -4 231 -12 259 -85 311 -49 34 -163 45 -233 23z"></path><path id="pzoXIdXWY" d="M3180 3178 c-8 -8 -95 -115 -194 -237 -98 -121 -182 -221 -185 -221 -10 0 -6 381 3 402 5 10 23 20 42 24 19 3 33 11 31 18 -2 6 -9 11 -15 10 -7 -1 -50 -2 -97 -2 -49 -1 -85 -6 -85 -12 0 -5 8 -10 18 -10 10 0 28 -7 40 -16 22 -15 22 -19 22 -249 l0 -234 -26 -20 c-15 -12 -33 -21 -40 -21 -8 0 -14 -4 -14 -10 0 -6 40 -10 100 -10 92 0 102 2 119 23 10 12 75 92 142 177 l124 154 3 -142 c1 -83 -2 -150 -8 -161 -5 -11 -23 -22 -40 -26 -59 -13 -28 -25 65 -25 52 0 95 3 95 8 0 4 -18 15 -40 24 l-40 16 -2 278 c-3 247 -5 276 -18 262z"></path><path id="pOGxmNV31" d="M2033 3167 c-4 -7 5 -12 48 -21 16 -4 29 -15 33 -28 3 -13 6 -123 6 -245 0 -210 -1 -224 -20 -243 -11 -11 -29 -20 -40 -20 -11 0 -20 -5 -20 -11 0 -8 59 -10 198 -7 176 3 202 6 244 25 62 28 83 62 83 134 0 66 -23 99 -87 128 l-37 17 74 103 c85 119 113 151 133 151 7 0 12 5 10 12 -6 18 -180 11 -193 -7 -5 -8 -46 -66 -90 -130 -62 -89 -85 -115 -100 -113 -18 3 -20 12 -23 93 -4 120 0 133 43 141 35 6 58 24 33 24 -7 0 -75 1 -151 3 -77 1 -141 -1 -144 -6z m345 -313 c29 -20 52 -65 52 -102 0 -76 -38 -118 -110 -122 -75 -4 -70 -12 -70 113 0 63 3 117 7 120 13 13 99 7 121 -9z"></path><path id="pgsWEIEqd" d="M3640 3172 c-18 -6 0 -22 24 -22 41 0 46 -20 21 -80 l-23 -55 -104 -3 -104 -3 -13 28 c-27 58 -30 81 -12 97 10 9 27 16 39 16 11 0 24 5 27 10 4 6 -30 10 -96 10 -88 0 -100 -2 -89 -15 6 -8 20 -17 30 -20 18 -6 53 -76 188 -384 43 -95 81 -173 86 -173 5 0 57 112 116 249 115 268 136 313 148 313 5 0 17 6 28 14 17 13 4 15 -119 18 -75 2 -142 1 -147 0z m0 -216 c0 -8 -4 -17 -9 -20 -4 -3 -21 -39 -37 -81 -16 -41 -32 -74 -37 -72 -7 2 -41 74 -77 165 -9 22 -9 22 75 22 67 0 85 -3 85 -14z"></path><path id="p14YHh1ifE" d="M3944 3171 c-11 -11 -2 -21 20 -21 54 0 56 -12 56 -265 0 -128 -3 -240 -6 -249 -3 -8 -21 -18 -40 -22 -76 -14 -26 -24 121 -24 148 0 199 10 116 24 -22 3 -41 13 -45 22 -3 8 -6 121 -6 249 0 275 -7 261 117 253 64 -4 78 -9 105 -34 17 -16 41 -53 55 -83 13 -30 28 -50 32 -45 5 5 4 50 -2 101 l-11 92 -254 3 c-139 2 -256 1 -258 -1z"></path><path id="puNw1MMuf" d="M280 1590 l0 -850 989 0 c582 0 992 4 995 9 4 5 -14 22 -39 38 -41 25 -115 116 -115 141 0 6 -16 24 -35 41 -40 35 -95 118 -136 205 l-29 62 35 177 c37 187 47 217 100 282 43 53 57 82 45 90 -13 8 -79 -21 -109 -48 l-24 -22 16 25 c23 34 22 54 -3 47 -10 -3 -25 1 -31 9 -15 18 -79 8 -96 -16 -19 -27 -163 -52 -303 -52 -69 0 -86 4 -126 27 -25 15 -54 41 -63 58 -9 16 -28 44 -42 61 -25 30 -49 69 -49 80 0 3 17 6 38 7 31 0 34 2 15 9 -12 5 -27 18 -33 29 -9 18 -8 21 10 21 11 0 20 4 20 9 0 15 -78 103 -121 136 -40 31 -87 95 -69 95 5 0 29 -13 53 -28 24 -15 76 -41 116 -57 65 -26 75 -27 107 -16 25 9 43 10 62 3 15 -6 56 -16 92 -22 92 -17 220 -61 220 -77 0 -17 -97 -65 -198 -97 -45 -14 -104 -37 -132 -51 -27 -14 -56 -25 -65 -25 -16 0 -21 -46 -7 -65 7 -10 94 -40 160 -55 23 -6 32 -4 32 5 0 7 -26 18 -62 25 -81 17 -105 29 -57 30 55 0 195 29 252 51 27 11 69 34 93 51 38 27 48 30 91 24 26 -4 76 -21 111 -37 35 -17 65 -29 67 -27 2 1 -4 23 -12 46 -8 24 -12 51 -9 59 4 9 -1 17 -14 20 -12 3 -30 23 -40 43 -14 27 -30 42 -54 50 -19 6 -37 17 -39 24 -3 7 -39 32 -79 54 -79 43 -106 66 -89 76 6 4 8 13 4 22 -5 13 3 14 48 9 135 -16 226 -54 293 -124 30 -31 56 -40 56 -21 0 22 -93 100 -153 129 -38 18 -94 34 -142 41 -44 7 -109 18 -144 26 -73 17 -185 70 -176 84 4 6 -30 10 -89 10 -53 0 -96 -4 -96 -8 0 -5 18 -18 40 -31 100 -56 -4 -57 -110 -1 l-75 40 -447 0 -448 0 0 -850z m1233 629 c38 -10 47 -23 24 -32 -17 -6 -77 19 -77 33 0 13 6 13 53 -1z m-398 -296 c57 -43 66 -47 59 -29 -4 10 -1 16 9 16 8 0 32 -28 53 -62 50 -79 116 -144 162 -159 51 -16 56 -20 41 -30 -53 -34 -145 20 -322 188 -54 51 -102 93 -107 93 -5 0 -12 10 -16 23 -3 12 -26 50 -50 85 -24 35 -44 66 -44 70 0 4 39 -32 88 -79 48 -47 105 -99 127 -116z"></path><path id="p16np08PCt" d="M1682 2430 c9 -6 67 -14 130 -20 125 -10 185 -29 267 -84 29 -20 60 -36 70 -36 9 0 36 -14 60 -30 50 -34 73 -37 92 -14 11 14 10 18 -6 30 -53 39 -114 97 -136 128 l-24 36 -235 0 c-157 -1 -229 -4 -218 -10z"></path></g></g><g id="l6atTA1aRbpR18Dv4xQbx2j" fill="rgb(214,3,44)" style="transform: none;"><g style="transform: none;"><path id="pRmMjOil1" d="M503 3902 c-138 -49 -214 -174 -200 -328 10 -109 68 -194 165 -241 49 -24 69 -28 142 -28 73 0 93 4 142 28 109 54 162 143 161 272 0 94 -21 150 -79 215 -79 88 -219 122 -331 82z m175 -42 c58 -35 76 -94 77 -245 0 -149 -15 -207 -68 -251 -27 -23 -38 -26 -84 -22 -64 6 -92 28 -124 101 -30 70 -33 234 -5 320 35 106 121 147 204 97z"></path><path id="pAoXJrGaq" d="M2635 3911 c-91 -24 -164 -81 -202 -159 -37 -76 -39 -180 -4 -259 28 -63 102 -135 168 -165 63 -28 177 -30 251 -4 51 17 54 17 73 0 10 -9 21 -15 23 -13 7 7 10 179 3 185 -3 3 -15 -14 -27 -38 -44 -87 -102 -123 -186 -116 -127 11 -202 152 -175 328 22 141 69 200 166 208 66 5 111 -9 163 -53 57 -50 84 -45 43 7 -36 46 -118 81 -195 84 -39 2 -84 0 -101 -5z"></path><path id="p1GuQNGbwu" d="M1123 3902 c-84 -1 -143 -7 -143 -12 0 -6 11 -10 24 -10 54 0 56 -11 56 -274 0 -260 -1 -266 -52 -266 -15 0 -28 -4 -28 -10 0 -6 88 -10 245 -10 l245 0 0 80 c0 44 -4 80 -8 80 -4 0 -14 -19 -22 -42 -20 -58 -69 -83 -165 -83 l-70 0 -3 113 -3 112 34 0 c44 0 82 -31 97 -78 24 -74 30 -55 30 98 0 153 -6 172 -29 99 -16 -49 -43 -71 -88 -73 l-38 -1 -3 111 c-3 122 5 144 53 144 26 0 42 16 22 21 -6 2 -76 3 -154 1z"></path><path id="poPQMooKZ" d="M1650 3900 c-91 -3 -138 -8 -125 -13 11 -5 30 -13 43 -18 22 -9 22 -9 22 -257 0 -260 -2 -272 -45 -272 -11 0 -27 -5 -35 -10 -10 -6 71 -10 238 -10 l252 0 0 87 c0 90 -8 98 -29 31 -19 -57 -67 -82 -161 -83 l-75 0 -3 113 -3 112 34 0 c48 0 85 -32 98 -86 6 -24 15 -44 20 -44 5 0 9 68 9 150 0 83 -4 150 -9 150 -5 0 -14 -20 -20 -45 -13 -51 -54 -85 -103 -85 l-28 0 0 113 c0 98 3 116 18 130 10 10 25 17 33 17 8 0 20 4 27 9 23 14 -4 16 -158 11z"></path><path id="pebom3cg8" d="M2178 3902 c-81 -1 -138 -7 -138 -12 0 -6 11 -10 24 -10 54 0 56 -11 56 -270 0 -259 -2 -270 -56 -270 -13 0 -24 -4 -24 -10 0 -6 59 -10 158 -10 105 0 152 4 142 10 -8 5 -24 10 -35 10 -43 0 -45 12 -45 264 0 133 4 247 9 254 4 7 20 16 34 20 15 4 27 11 28 17 1 12 13 11 -153 7z"></path><path id="p10nC1pLNp" d="M3944 3901 c-11 -11 -2 -21 20 -21 54 0 56 -11 56 -270 0 -259 -2 -270 -56 -270 -13 0 -24 -4 -24 -10 0 -6 59 -10 156 -10 101 0 153 3 149 10 -3 6 -19 10 -34 10 -50 0 -51 7 -51 256 0 128 3 239 6 248 5 13 23 16 91 16 109 0 134 -14 174 -97 29 -62 57 -86 46 -40 -3 12 -9 55 -13 95 -4 41 -12 75 -18 78 -15 5 -497 10 -502 5z"></path><path id="prQKLROMj" d="M3015 3890 c3 -5 17 -10 29 -10 44 0 46 -14 46 -270 1 -256 -2 -270 -46 -270 -12 0 -26 -4 -29 -10 -4 -7 48 -10 150 -10 102 0 154 3 150 10 -3 6 -17 10 -30 10 -50 0 -55 25 -55 272 0 215 1 229 20 248 11 11 29 20 39 20 11 0 23 5 26 10 4 7 -48 10 -150 10 -102 0 -154 -3 -150 -10z"></path><path id="pNPDSOseq" d="M3360 3890 c0 -5 11 -10 24 -10 54 0 56 -11 56 -274 0 -260 -1 -266 -52 -266 -15 0 -28 -4 -28 -10 0 -6 88 -10 245 -10 l245 0 0 78 c0 43 -3 82 -7 86 -4 4 -17 -16 -30 -44 -28 -65 -82 -93 -171 -88 l-57 3 -3 113 -3 112 28 0 c42 0 71 -25 85 -74 7 -24 17 -44 21 -45 5 -1 9 62 9 139 0 77 -4 140 -9 139 -4 -1 -14 -21 -21 -45 -13 -46 -49 -74 -92 -74 -21 0 -22 3 -18 114 1 63 7 118 11 122 4 5 38 8 75 8 93 -1 144 -28 177 -94 31 -60 50 -67 40 -12 -4 20 -10 60 -14 87 l-6 50 -252 3 c-167 1 -253 -1 -253 -8z"></path><path id="pQKu0eo8f" d="M2895 2430 c-9 -15 40 -102 84 -147 52 -54 83 -60 213 -37 130 22 169 23 202 0 40 -26 61 -80 45 -118 -11 -26 -9 -32 17 -59 24 -25 26 -32 16 -47 -24 -33 -24 -42 -1 -61 22 -17 22 -21 10 -59 -16 -47 -11 -58 29 -67 33 -7 60 -29 60 -49 0 -7 -31 -62 -70 -121 l-70 -108 0 -92 c0 -73 -6 -113 -31 -196 -45 -154 -44 -144 -15 -163 16 -10 26 -26 26 -41 0 -35 -18 -40 -46 -14 -20 19 -24 20 -24 6 0 -21 -50 -68 -110 -105 l-45 -27 53 -3 c46 -3 54 -6 67 -32 23 -45 18 -70 -21 -107 -20 -19 -35 -35 -33 -36 2 -1 289 -1 637 1 l632 3 0 844 0 845 -809 0 c-508 0 -812 -4 -816 -10z"></path></g></g><g id="l4GzBSvMdtt7hMft8ZBdwys" fill="rgb(143,147,149)" style="transform: none;"><g style="transform: none;"><path id="pqbyse4SE" d="M2270 2273 c0 -5 5 -15 10 -23 7 -11 12 -12 21 -3 6 6 8 16 5 22 -8 12 -36 15 -36 4z"></path><path id="pccUngWlL" d="M1400 1820 c0 -11 41 -30 66 -30 8 0 14 5 14 10 0 6 -9 10 -21 10 -11 0 -29 5 -40 10 -13 8 -19 7 -19 0z"></path><path id="pZjJ3Vmxp" d="M1530 1782 c0 -13 25 -22 63 -22 23 1 28 3 17 9 -25 15 -80 23 -80 13z"></path><path id="p25GWQ2sn" d="M3260 1610 c0 -14 -9 -21 -35 -26 -20 -3 -35 -10 -33 -14 2 -5 32 -28 68 -52 35 -23 62 -47 60 -53 -3 -5 -34 -10 -70 -11 -83 -1 -90 -3 -60 -15 57 -23 118 -30 159 -19 23 6 41 15 41 20 0 18 -43 92 -56 97 -9 3 -14 21 -14 49 0 42 -1 44 -30 44 -23 0 -30 -4 -30 -20z"></path></g></g></svg>