<?xml version="1.0" encoding="utf-8"?>
<!DOCTYPE svg PUBLIC "-//W3C//DTD SVG 1.1//EN" "http://www.w3.org/Graphics/SVG/1.1/DTD/svg11.dtd">
<svg version="1.1" id="Layer_1" xmlns="http://www.w3.org/2000/svg" xmlns:xlink="http://www.w3.org/1999/xlink" x="0px" y="0px"
	 width="150px" height="150px" viewBox="0 0 260 300" enable-background="new 0 0 1000 291.379" xml:space="preserve">
<g>
	<path fill="#FF004F" d="M191.102,105.182c18.814,13.442,41.862,21.351,66.755,21.351V78.656c-4.711,0.001-9.41-0.49-14.019-1.466
		v37.686c-24.891,0-47.936-7.909-66.755-21.35v97.703c0,48.876-39.642,88.495-88.54,88.495c-18.245,0-35.203-5.513-49.29-14.968
		c16.078,16.431,38.5,26.624,63.306,26.624c48.901,0,88.545-39.619,88.545-88.497v-97.701H191.102z M208.396,56.88
		c-9.615-10.499-15.928-24.067-17.294-39.067v-6.158h-13.285C181.161,30.72,192.567,47.008,208.396,56.88L208.396,56.88z
		 M70.181,227.25c-5.372-7.04-8.275-15.652-8.262-24.507c0-22.354,18.132-40.479,40.502-40.479
		c4.169-0.001,8.313,0.637,12.286,1.897v-48.947c-4.643-0.636-9.329-0.906-14.013-0.807v38.098c-3.976-1.26-8.122-1.9-12.292-1.896
		c-22.37,0-40.501,18.123-40.501,40.48C47.901,206.897,56.964,220.583,70.181,227.25z"/>
	<path d="M177.083,93.525c18.819,13.441,41.864,21.35,66.755,21.35V77.189c-13.894-2.958-26.194-10.215-35.442-20.309
		c-15.83-9.873-27.235-26.161-30.579-45.225h-34.896v191.226c-0.079,22.293-18.18,40.344-40.502,40.344
		c-13.154,0-24.84-6.267-32.241-15.975c-13.216-6.667-22.279-20.354-22.279-36.16c0-22.355,18.131-40.48,40.501-40.48
		c4.286,0,8.417,0.667,12.292,1.896v-38.098c-48.039,0.992-86.674,40.224-86.674,88.474c0,24.086,9.621,45.921,25.236,61.875
		c14.087,9.454,31.045,14.968,49.29,14.968c48.899,0,88.54-39.621,88.54-88.496V93.525L177.083,93.525z"/>
	<path fill="#00F2EA" d="M243.838,77.189V66.999c-12.529,0.019-24.812-3.488-35.442-10.12
		C217.806,67.176,230.197,74.276,243.838,77.189z M177.817,11.655c-0.319-1.822-0.564-3.656-0.734-5.497V0h-48.182v191.228
		c-0.077,22.29-18.177,40.341-40.501,40.341c-6.554,0-12.742-1.555-18.222-4.318c7.401,9.707,19.087,15.973,32.241,15.973
		c22.32,0,40.424-18.049,40.502-40.342V11.655H177.817z M100.694,114.408V103.56c-4.026-0.55-8.085-0.826-12.149-0.824
		C39.642,102.735,0,142.356,0,191.228c0,30.64,15.58,57.643,39.255,73.527c-15.615-15.953-25.236-37.789-25.236-61.874
		C14.019,154.632,52.653,115.4,100.694,114.408z"/>
	
</g>
</svg>
